<svg xmlns="http://www.w3.org/2000/svg" xmlns:xlink="http://www.w3.org/1999/xlink" width="100" zoomAndPan="magnify" viewBox="0 0 75 30.000001" height="40" preserveAspectRatio="xMidYMid meet" version="1.0"><defs><g/><clipPath id="8d1a7b02c3"><path d="M 39 9 L 52 9 L 52 25.6875 L 39 25.6875 Z M 39 9 " clip-rule="nonzero"/></clipPath><clipPath id="249525fb33"><path d="M 38.246094 7.542969 L 52 7.542969 L 52 25 L 38.246094 25 Z M 38.246094 7.542969 " clip-rule="nonzero"/></clipPath></defs><g clip-path="url(#8d1a7b02c3)"><path fill="#000000" d="M 49.050781 10.703125 C 51.558594 12.332031 52.273438 15.683594 50.644531 18.191406 C 49.25 20.34375 46.585938 21.171875 44.273438 20.34375 L 42.726562 22.726562 L 41.496094 24.617188 C 41.125 25.191406 40.351562 25.355469 39.777344 24.984375 C 39.203125 24.613281 39.039062 23.835938 39.410156 23.261719 L 40.640625 21.371094 L 42.1875 18.988281 C 40.488281 17.214844 40.164062 14.445312 41.558594 12.292969 C 43.1875 9.785156 46.542969 9.074219 49.050781 10.703125 Z M 39.777344 24.984375 Z M 39.777344 24.984375 " fill-opacity="1" fill-rule="evenodd"/></g><g clip-path="url(#249525fb33)"><path fill="#ffffff" d="M 48.382812 9.625 C 49.472656 10.332031 50.171875 11.414062 50.421875 12.589844 C 50.671875 13.765625 50.472656 15.039062 49.765625 16.128906 L 49.046875 15.660156 C 49.628906 14.773438 49.789062 13.730469 49.585938 12.769531 C 49.378906 11.804688 48.808594 10.921875 47.917969 10.34375 Z M 49.007812 8.667969 C 50.359375 9.546875 51.230469 10.890625 51.539062 12.351562 C 51.851562 13.816406 51.605469 15.398438 50.726562 16.75 C 49.847656 18.105469 48.503906 18.972656 47.039062 19.285156 C 46.101562 19.484375 45.117188 19.453125 44.175781 19.175781 L 42.851562 21.214844 L 42.601562 21.601562 L 41.371094 23.496094 C 41.121094 23.882812 40.734375 24.128906 40.316406 24.21875 C 39.898438 24.308594 39.445312 24.238281 39.058594 23.988281 C 38.671875 23.738281 38.425781 23.351562 38.335938 22.933594 C 38.246094 22.511719 38.316406 22.0625 38.566406 21.675781 L 39.796875 19.78125 L 40.050781 19.394531 L 41.371094 17.355469 C 40.734375 16.605469 40.308594 15.71875 40.109375 14.785156 C 39.796875 13.320312 40.042969 11.738281 40.921875 10.386719 C 41.800781 9.03125 43.144531 8.164062 44.609375 7.851562 C 46.070312 7.542969 47.652344 7.789062 49.007812 8.667969 Z M 43.355469 18.867188 C 43.167969 18.777344 42.984375 18.679688 42.804688 18.570312 L 42.792969 18.566406 C 42.78125 18.558594 42.769531 18.550781 42.757812 18.542969 C 42.742188 18.53125 42.726562 18.523438 42.707031 18.511719 L 42.703125 18.507812 C 42.683594 18.496094 42.660156 18.480469 42.640625 18.46875 C 42.621094 18.457031 42.601562 18.441406 42.582031 18.429688 L 42.574219 18.425781 C 42.558594 18.414062 42.542969 18.402344 42.527344 18.394531 C 42.515625 18.386719 42.503906 18.378906 42.492188 18.371094 L 42.492188 18.367188 L 42.484375 18.363281 C 42.308594 18.242188 42.144531 18.113281 41.988281 17.976562 L 40.730469 19.914062 C 40.789062 19.957031 40.84375 19.996094 40.898438 20.035156 C 41.046875 20.140625 41.214844 20.253906 41.402344 20.375 C 41.59375 20.5 41.765625 20.605469 41.917969 20.699219 C 41.976562 20.730469 42.039062 20.765625 42.097656 20.800781 Z M 50.703125 12.53125 C 50.4375 11.28125 49.695312 10.136719 48.539062 9.386719 C 47.386719 8.632812 46.035156 8.425781 44.789062 8.6875 C 43.539062 8.953125 42.390625 9.695312 41.640625 10.851562 C 40.890625 12.007812 40.679688 13.355469 40.945312 14.605469 C 41.210938 15.855469 41.953125 17 43.109375 17.75 C 44.261719 18.5 45.613281 18.710938 46.863281 18.445312 C 48.109375 18.183594 49.257812 17.441406 50.007812 16.285156 C 50.757812 15.128906 50.96875 13.78125 50.703125 12.53125 Z M 40.652344 23.03125 L 41.632812 21.519531 C 41.585938 21.492188 41.535156 21.460938 41.484375 21.429688 C 41.28125 21.3125 41.101562 21.199219 40.9375 21.09375 C 40.773438 20.988281 40.597656 20.867188 40.40625 20.734375 C 40.359375 20.699219 40.3125 20.664062 40.265625 20.628906 L 39.285156 22.140625 C 39.164062 22.328125 39.128906 22.550781 39.171875 22.753906 C 39.214844 22.960938 39.335938 23.148438 39.523438 23.269531 C 39.710938 23.390625 39.933594 23.425781 40.136719 23.382812 C 40.34375 23.339844 40.53125 23.21875 40.652344 23.03125 Z M 40.652344 23.03125 " fill-opacity="1" fill-rule="nonzero"/></g><g fill="#ffffff" fill-opacity="1"><g transform="translate(3.5728, 20.06289)"><g><path d="M 9.609375 -16.546875 L 16.296875 0 L 12.234375 0 L 11.015625 -3.3125 L 4.71875 -3.3125 L 3.484375 0 L -0.5625 0 L 6.125 -16.546875 Z M 9.734375 -6.625 L 7.890625 -11.4375 L 7.84375 -11.4375 L 6 -6.625 Z M 9.734375 -6.625 "/></g></g></g><g fill="#ffffff" fill-opacity="1"><g transform="translate(17.861225, 20.06289)"><g><path d="M 11.796875 -9.015625 C 12.753906 -7.960938 13.234375 -6.675781 13.234375 -5.15625 C 13.234375 -3.632812 12.753906 -2.34375 11.796875 -1.28125 C 10.835938 -0.226562 9.613281 0.296875 8.125 0.296875 C 6.757812 0.296875 5.632812 -0.128906 4.75 -0.984375 L 4.75 5.21875 L 1.203125 5.21875 L 1.203125 -10.296875 L 4.71875 -10.296875 L 4.71875 -9.125 L 4.75 -9.125 C 5.632812 -10.101562 6.757812 -10.59375 8.125 -10.59375 C 9.613281 -10.59375 10.835938 -10.066406 11.796875 -9.015625 Z M 8.765625 -3.40625 C 9.234375 -3.863281 9.46875 -4.445312 9.46875 -5.15625 C 9.46875 -5.863281 9.242188 -6.441406 8.796875 -6.890625 C 8.359375 -7.335938 7.78125 -7.5625 7.0625 -7.5625 C 6.363281 -7.5625 5.789062 -7.332031 5.34375 -6.875 C 4.894531 -6.425781 4.671875 -5.851562 4.671875 -5.15625 C 4.671875 -4.445312 4.898438 -3.863281 5.359375 -3.40625 C 5.828125 -2.957031 6.394531 -2.734375 7.0625 -2.734375 C 7.738281 -2.734375 8.304688 -2.957031 8.765625 -3.40625 Z M 8.765625 -3.40625 "/></g></g></g><g fill="#ffffff" fill-opacity="1"><g transform="translate(30.122754, 20.06289)"><g><path d="M 5.671875 -10.59375 C 6.265625 -10.59375 6.847656 -10.523438 7.421875 -10.390625 C 7.992188 -10.253906 8.421875 -10.117188 8.703125 -9.984375 L 9.125 -9.796875 L 7.96875 -7.46875 C 7.164062 -7.894531 6.398438 -8.109375 5.671875 -8.109375 C 5.273438 -8.109375 4.992188 -8.0625 4.828125 -7.96875 C 4.660156 -7.882812 4.578125 -7.722656 4.578125 -7.484375 C 4.578125 -7.429688 4.582031 -7.378906 4.59375 -7.328125 C 4.601562 -7.273438 4.628906 -7.222656 4.671875 -7.171875 C 4.710938 -7.128906 4.75 -7.085938 4.78125 -7.046875 C 4.8125 -7.015625 4.867188 -6.976562 4.953125 -6.9375 C 5.035156 -6.894531 5.097656 -6.863281 5.140625 -6.84375 C 5.191406 -6.832031 5.269531 -6.804688 5.375 -6.765625 C 5.476562 -6.722656 5.554688 -6.691406 5.609375 -6.671875 C 5.671875 -6.648438 5.765625 -6.617188 5.890625 -6.578125 C 6.015625 -6.535156 6.109375 -6.507812 6.171875 -6.5 C 6.585938 -6.375 6.945312 -6.238281 7.25 -6.09375 C 7.5625 -5.945312 7.890625 -5.742188 8.234375 -5.484375 C 8.578125 -5.234375 8.84375 -4.914062 9.03125 -4.53125 C 9.21875 -4.144531 9.3125 -3.703125 9.3125 -3.203125 C 9.3125 -0.867188 7.6875 0.296875 4.4375 0.296875 C 3.695312 0.296875 2.992188 0.1875 2.328125 -0.03125 C 1.671875 -0.257812 1.195312 -0.488281 0.90625 -0.71875 L 0.46875 -1.078125 L 1.90625 -3.515625 C 2.007812 -3.421875 2.148438 -3.304688 2.328125 -3.171875 C 2.503906 -3.046875 2.816406 -2.875 3.265625 -2.65625 C 3.722656 -2.4375 4.117188 -2.328125 4.453125 -2.328125 C 5.191406 -2.328125 5.5625 -2.570312 5.5625 -3.0625 C 5.5625 -3.289062 5.46875 -3.46875 5.28125 -3.59375 C 5.09375 -3.726562 4.773438 -3.875 4.328125 -4.03125 C 3.878906 -4.1875 3.523438 -4.332031 3.265625 -4.46875 C 2.628906 -4.800781 2.125 -5.175781 1.75 -5.59375 C 1.375 -6.019531 1.1875 -6.582031 1.1875 -7.28125 C 1.1875 -8.320312 1.585938 -9.132812 2.390625 -9.71875 C 3.203125 -10.300781 4.296875 -10.59375 5.671875 -10.59375 Z M 5.671875 -10.59375 "/></g></g></g><g fill="#ffffff" fill-opacity="1"><g transform="translate(38.552268, 20.06289)"><g/></g></g><g fill="#ffffff" fill-opacity="1"><g transform="translate(42.585811, 20.06289)"><g/></g></g><g fill="#ffffff" fill-opacity="1"><g transform="translate(46.619354, 20.06289)"><g/></g></g><g fill="#ffffff" fill-opacity="1"><g transform="translate(50.655404, 20.06289)"><g><path d="M 1.203125 0 L 1.203125 -10.296875 L 4.75 -10.296875 L 4.75 -8.8125 L 4.796875 -8.8125 C 4.816406 -8.863281 4.859375 -8.925781 4.921875 -9 C 4.984375 -9.082031 5.113281 -9.222656 5.3125 -9.421875 C 5.519531 -9.628906 5.734375 -9.8125 5.953125 -9.96875 C 6.179688 -10.132812 6.476562 -10.28125 6.84375 -10.40625 C 7.207031 -10.53125 7.570312 -10.59375 7.9375 -10.59375 C 8.332031 -10.59375 8.71875 -10.535156 9.09375 -10.421875 C 9.46875 -10.316406 9.738281 -10.210938 9.90625 -10.109375 L 10.1875 -9.953125 L 8.703125 -6.9375 C 8.265625 -7.3125 7.648438 -7.5 6.859375 -7.5 C 6.429688 -7.5 6.0625 -7.40625 5.75 -7.21875 C 5.445312 -7.03125 5.234375 -6.800781 5.109375 -6.53125 C 4.984375 -6.269531 4.890625 -6.046875 4.828125 -5.859375 C 4.773438 -5.671875 4.75 -5.523438 4.75 -5.421875 L 4.75 0 Z M 1.203125 0 "/></g></g></g><g fill="#ffffff" fill-opacity="1"><g transform="translate(59.204304, 20.06289)"><g><path d="M 1.90625 -1.265625 C 0.945312 -2.316406 0.46875 -3.601562 0.46875 -5.125 C 0.46875 -6.65625 0.945312 -7.945312 1.90625 -9 C 2.863281 -10.0625 4.085938 -10.59375 5.578125 -10.59375 C 6.941406 -10.59375 8.066406 -10.164062 8.953125 -9.3125 L 8.953125 -10.296875 L 12.5 -10.296875 L 12.5 0 L 8.984375 0 L 8.984375 -1.15625 L 8.953125 -1.15625 C 8.066406 -0.1875 6.941406 0.296875 5.578125 0.296875 C 4.085938 0.296875 2.863281 -0.222656 1.90625 -1.265625 Z M 4.921875 -6.875 C 4.460938 -6.425781 4.234375 -5.847656 4.234375 -5.140625 C 4.234375 -4.429688 4.453125 -3.851562 4.890625 -3.40625 C 5.335938 -2.957031 5.921875 -2.734375 6.640625 -2.734375 C 7.335938 -2.734375 7.910156 -2.957031 8.359375 -3.40625 C 8.804688 -3.863281 9.03125 -4.441406 9.03125 -5.140625 C 9.03125 -5.847656 8.796875 -6.425781 8.328125 -6.875 C 7.867188 -7.332031 7.304688 -7.5625 6.640625 -7.5625 C 5.960938 -7.5625 5.390625 -7.332031 4.921875 -6.875 Z M 4.921875 -6.875 "/></g></g></g><g fill="#ffffff" fill-opacity="1"><g transform="translate(49.253321, 24.389366)"><g><path d="M 2.640625 -2.4375 L 1.65625 -2.4375 L 1.65625 0 L 1.078125 0 L 1.078125 -2.4375 L 0.09375 -2.4375 L 0.09375 -2.890625 L 2.640625 -2.890625 Z M 2.640625 -2.4375 "/></g></g></g><g fill="#ffffff" fill-opacity="1"><g transform="translate(53.248199, 24.389366)"><g><path d="M 1.9375 -0.875 L 0.96875 -0.875 L 0.671875 0 L 0.0625 0 L 1.109375 -2.890625 L 1.828125 -2.890625 L 2.859375 0 L 2.21875 0 Z M 1.453125 -2.390625 L 1.109375 -1.328125 L 1.796875 -1.328125 Z M 1.453125 -2.390625 "/></g></g></g><g fill="#ffffff" fill-opacity="1"><g transform="translate(57.464464, 24.389366)"><g><path d="M 2.453125 -0.484375 L 2.453125 0 L 0.375 0 L 0.375 -2.890625 L 0.953125 -2.890625 L 0.953125 -0.484375 Z M 2.453125 -0.484375 "/></g></g></g><g fill="#ffffff" fill-opacity="1"><g transform="translate(61.379977, 24.389366)"><g><path d="M 2.453125 -0.453125 L 2.453125 0 L 0.375 0 L 0.375 -2.890625 L 2.421875 -2.890625 L 2.421875 -2.4375 L 0.953125 -2.4375 L 0.953125 -1.671875 L 2.3125 -1.671875 L 2.3125 -1.21875 L 0.953125 -1.21875 L 0.953125 -0.453125 Z M 2.453125 -0.453125 "/></g></g></g><g fill="#ffffff" fill-opacity="1"><g transform="translate(65.345616, 24.389366)"><g><path d="M 2.90625 0 L 2.125 0 L 0.921875 -2.1875 C 0.941406 -1.925781 0.953125 -1.632812 0.953125 -1.3125 L 0.953125 0 L 0.375 0 L 0.375 -2.890625 L 1.140625 -2.890625 L 2.359375 -0.65625 C 2.335938 -0.914062 2.328125 -1.21875 2.328125 -1.5625 L 2.328125 -2.890625 L 2.90625 -2.890625 Z M 2.90625 0 "/></g></g></g><g fill="#ffffff" fill-opacity="1"><g transform="translate(69.912758, 24.389366)"><g><path d="M 2.640625 -2.4375 L 1.65625 -2.4375 L 1.65625 0 L 1.078125 0 L 1.078125 -2.4375 L 0.09375 -2.4375 L 0.09375 -2.890625 L 2.640625 -2.890625 Z M 2.640625 -2.4375 "/></g></g></g></svg>