<svg xmlns="http://www.w3.org/2000/svg" xmlns:xlink="http://www.w3.org/1999/xlink" width="100" zoomAndPan="magnify" viewBox="0 0 75 30.000001" height="40" preserveAspectRatio="xMidYMid meet" version="1.0"><defs><g/><clipPath id="455273da48"><path d="M 38.027344 9.097656 L 52 9.097656 L 52 27 L 38.027344 27 Z M 38.027344 9.097656 " clip-rule="nonzero"/></clipPath></defs><path fill="#d9d9d9" d="M 48.957031 12.292969 C 51.492188 13.941406 52.214844 17.335938 50.566406 19.871094 C 49.152344 22.046875 46.460938 22.886719 44.121094 22.046875 L 42.558594 24.457031 L 41.316406 26.371094 C 40.9375 26.949219 40.15625 27.117188 39.574219 26.738281 C 38.996094 26.363281 38.828125 25.578125 39.203125 25 L 40.449219 23.085938 L 42.011719 20.675781 C 40.292969 18.882812 39.964844 16.078125 41.378906 13.90625 C 43.027344 11.367188 46.417969 10.644531 48.957031 12.292969 Z M 39.574219 26.738281 Z M 39.574219 26.738281 " fill-opacity="1" fill-rule="evenodd"/><g clip-path="url(#455273da48)"><path fill="#000000" d="M 48.28125 11.207031 C 49.382812 11.921875 50.089844 13.015625 50.339844 14.203125 C 50.59375 15.394531 50.394531 16.683594 49.679688 17.78125 L 48.953125 17.3125 C 49.539062 16.410156 49.703125 15.359375 49.496094 14.386719 C 49.289062 13.410156 48.710938 12.515625 47.808594 11.933594 Z M 48.910156 10.238281 C 50.277344 11.125 51.15625 12.484375 51.472656 13.964844 C 51.785156 15.445312 51.535156 17.042969 50.648438 18.414062 C 49.757812 19.78125 48.398438 20.660156 46.921875 20.976562 C 45.972656 21.175781 44.976562 21.144531 44.023438 20.867188 L 42.683594 22.925781 L 42.429688 23.320312 L 41.1875 25.234375 C 40.933594 25.625 40.542969 25.875 40.121094 25.964844 C 39.695312 26.054688 39.238281 25.984375 38.847656 25.730469 C 38.457031 25.476562 38.207031 25.089844 38.117188 24.664062 C 38.027344 24.242188 38.097656 23.78125 38.351562 23.394531 L 39.59375 21.476562 L 39.851562 21.085938 L 41.1875 19.023438 C 40.542969 18.265625 40.109375 17.371094 39.910156 16.421875 C 39.59375 14.941406 39.84375 13.34375 40.734375 11.972656 C 41.625 10.605469 42.984375 9.726562 44.460938 9.414062 C 45.941406 9.097656 47.542969 9.347656 48.910156 10.238281 Z M 43.195312 20.550781 C 43.003906 20.464844 42.820312 20.363281 42.636719 20.253906 L 42.625 20.246094 C 42.613281 20.238281 42.601562 20.230469 42.589844 20.226562 C 42.574219 20.214844 42.554688 20.203125 42.539062 20.195312 L 42.535156 20.191406 C 42.511719 20.175781 42.492188 20.164062 42.472656 20.152344 C 42.453125 20.136719 42.429688 20.125 42.410156 20.109375 L 42.40625 20.105469 C 42.390625 20.09375 42.371094 20.085938 42.355469 20.074219 C 42.34375 20.066406 42.332031 20.058594 42.320312 20.050781 L 42.3125 20.042969 C 42.136719 19.921875 41.96875 19.789062 41.8125 19.652344 L 40.539062 21.613281 C 40.597656 21.65625 40.65625 21.695312 40.710938 21.734375 C 40.859375 21.839844 41.027344 21.953125 41.21875 22.078125 C 41.410156 22.203125 41.585938 22.3125 41.742188 22.402344 C 41.800781 22.4375 41.859375 22.472656 41.921875 22.511719 Z M 50.625 14.144531 C 50.355469 12.882812 49.605469 11.722656 48.4375 10.960938 C 47.269531 10.203125 45.90625 9.992188 44.640625 10.257812 C 43.378906 10.527344 42.21875 11.277344 41.460938 12.445312 C 40.703125 13.613281 40.488281 14.980469 40.757812 16.242188 C 41.023438 17.503906 41.773438 18.664062 42.945312 19.425781 C 44.113281 20.183594 45.476562 20.398438 46.738281 20.128906 C 48.003906 19.859375 49.164062 19.109375 49.921875 17.941406 C 50.679688 16.773438 50.894531 15.40625 50.625 14.144531 Z M 40.460938 24.761719 L 41.453125 23.234375 C 41.402344 23.207031 41.351562 23.175781 41.300781 23.144531 C 41.097656 23.023438 40.914062 22.910156 40.75 22.804688 C 40.585938 22.699219 40.40625 22.578125 40.210938 22.441406 C 40.164062 22.40625 40.117188 22.371094 40.070312 22.335938 L 39.078125 23.863281 C 38.953125 24.054688 38.917969 24.277344 38.964844 24.484375 C 39.007812 24.691406 39.128906 24.882812 39.320312 25.003906 C 39.507812 25.128906 39.734375 25.164062 39.941406 25.117188 C 40.148438 25.074219 40.335938 24.953125 40.460938 24.761719 Z M 40.460938 24.761719 " fill-opacity="1" fill-rule="nonzero"/></g><g fill="#000000" fill-opacity="1"><g transform="translate(2.622286, 20.682223)"><g><path d="M 9.8125 -16.90625 L 16.640625 0 L 12.5 0 L 11.25 -3.375 L 4.8125 -3.375 L 3.5625 0 L -0.578125 0 L 6.25 -16.90625 Z M 9.9375 -6.765625 L 8.046875 -11.671875 L 8.015625 -11.671875 L 6.125 -6.765625 Z M 9.9375 -6.765625 "/></g></g></g><g fill="#000000" fill-opacity="1"><g transform="translate(17.211894, 20.682223)"><g><path d="M 12.03125 -9.203125 C 13.019531 -8.128906 13.515625 -6.8125 13.515625 -5.25 C 13.515625 -3.695312 13.019531 -2.378906 12.03125 -1.296875 C 11.050781 -0.222656 9.804688 0.3125 8.296875 0.3125 C 6.898438 0.3125 5.753906 -0.125 4.859375 -1 L 4.859375 5.328125 L 1.234375 5.328125 L 1.234375 -10.515625 L 4.8125 -10.515625 L 4.8125 -9.328125 L 4.859375 -9.328125 C 5.753906 -10.316406 6.898438 -10.8125 8.296875 -10.8125 C 9.804688 -10.8125 11.050781 -10.273438 12.03125 -9.203125 Z M 8.953125 -3.46875 C 9.429688 -3.9375 9.671875 -4.53125 9.671875 -5.25 C 9.671875 -5.976562 9.441406 -6.570312 8.984375 -7.03125 C 8.535156 -7.488281 7.941406 -7.71875 7.203125 -7.71875 C 6.492188 -7.71875 5.910156 -7.484375 5.453125 -7.015625 C 4.992188 -6.554688 4.765625 -5.972656 4.765625 -5.265625 C 4.765625 -4.535156 5 -3.9375 5.46875 -3.46875 C 5.945312 -3.007812 6.523438 -2.78125 7.203125 -2.78125 C 7.898438 -2.78125 8.484375 -3.007812 8.953125 -3.46875 Z M 8.953125 -3.46875 "/></g></g></g><g fill="#000000" fill-opacity="1"><g transform="translate(29.731901, 20.682223)"><g><path d="M 5.796875 -10.8125 C 6.398438 -10.8125 6.992188 -10.742188 7.578125 -10.609375 C 8.160156 -10.472656 8.597656 -10.335938 8.890625 -10.203125 L 9.328125 -10 L 8.125 -7.625 C 7.3125 -8.0625 6.535156 -8.28125 5.796875 -8.28125 C 5.390625 -8.28125 5.097656 -8.234375 4.921875 -8.140625 C 4.753906 -8.054688 4.671875 -7.890625 4.671875 -7.640625 C 4.671875 -7.585938 4.675781 -7.53125 4.6875 -7.46875 C 4.707031 -7.414062 4.734375 -7.363281 4.765625 -7.3125 C 4.804688 -7.269531 4.84375 -7.234375 4.875 -7.203125 C 4.914062 -7.171875 4.976562 -7.132812 5.0625 -7.09375 C 5.144531 -7.050781 5.207031 -7.019531 5.25 -7 C 5.300781 -6.976562 5.378906 -6.945312 5.484375 -6.90625 C 5.597656 -6.863281 5.679688 -6.832031 5.734375 -6.8125 C 5.785156 -6.789062 5.875 -6.757812 6 -6.71875 C 6.132812 -6.675781 6.238281 -6.648438 6.3125 -6.640625 C 6.726562 -6.515625 7.09375 -6.375 7.40625 -6.21875 C 7.726562 -6.070312 8.0625 -5.867188 8.40625 -5.609375 C 8.757812 -5.347656 9.03125 -5.019531 9.21875 -4.625 C 9.40625 -4.226562 9.5 -3.78125 9.5 -3.28125 C 9.5 -0.882812 7.84375 0.3125 4.53125 0.3125 C 3.78125 0.3125 3.066406 0.195312 2.390625 -0.03125 C 1.710938 -0.269531 1.222656 -0.503906 0.921875 -0.734375 L 0.46875 -1.109375 L 1.953125 -3.578125 C 2.054688 -3.484375 2.195312 -3.367188 2.375 -3.234375 C 2.550781 -3.109375 2.867188 -2.929688 3.328125 -2.703125 C 3.796875 -2.484375 4.203125 -2.375 4.546875 -2.375 C 5.296875 -2.375 5.671875 -2.628906 5.671875 -3.140625 C 5.671875 -3.367188 5.570312 -3.546875 5.375 -3.671875 C 5.1875 -3.804688 4.863281 -3.953125 4.40625 -4.109375 C 3.957031 -4.273438 3.601562 -4.425781 3.34375 -4.5625 C 2.6875 -4.90625 2.164062 -5.289062 1.78125 -5.71875 C 1.394531 -6.15625 1.203125 -6.726562 1.203125 -7.4375 C 1.203125 -8.5 1.613281 -9.328125 2.4375 -9.921875 C 3.269531 -10.515625 4.390625 -10.8125 5.796875 -10.8125 Z M 5.796875 -10.8125 "/></g></g></g><g fill="#000000" fill-opacity="1"><g transform="translate(38.340173, 20.682223)"><g/></g></g><g fill="#000000" fill-opacity="1"><g transform="translate(42.458828, 20.682223)"><g/></g></g><g fill="#000000" fill-opacity="1"><g transform="translate(46.577482, 20.682223)"><g/></g></g><g fill="#000000" fill-opacity="1"><g transform="translate(50.698263, 20.682223)"><g><path d="M 1.234375 0 L 1.234375 -10.515625 L 4.859375 -10.515625 L 4.859375 -9 L 4.890625 -9 C 4.921875 -9.050781 4.96875 -9.117188 5.03125 -9.203125 C 5.09375 -9.285156 5.222656 -9.425781 5.421875 -9.625 C 5.628906 -9.832031 5.847656 -10.015625 6.078125 -10.171875 C 6.316406 -10.335938 6.617188 -10.484375 6.984375 -10.609375 C 7.347656 -10.742188 7.722656 -10.8125 8.109375 -10.8125 C 8.503906 -10.8125 8.894531 -10.753906 9.28125 -10.640625 C 9.664062 -10.535156 9.945312 -10.429688 10.125 -10.328125 L 10.40625 -10.15625 L 8.890625 -7.09375 C 8.441406 -7.46875 7.8125 -7.65625 7 -7.65625 C 6.5625 -7.65625 6.1875 -7.5625 5.875 -7.375 C 5.5625 -7.1875 5.335938 -6.953125 5.203125 -6.671875 C 5.078125 -6.398438 4.988281 -6.164062 4.9375 -5.96875 C 4.882812 -5.78125 4.859375 -5.632812 4.859375 -5.53125 L 4.859375 0 Z M 1.234375 0 "/></g></g></g><g fill="#000000" fill-opacity="1"><g transform="translate(59.427413, 20.682223)"><g><path d="M 1.9375 -1.296875 C 0.957031 -2.367188 0.46875 -3.679688 0.46875 -5.234375 C 0.46875 -6.796875 0.957031 -8.113281 1.9375 -9.1875 C 2.925781 -10.269531 4.175781 -10.8125 5.6875 -10.8125 C 7.082031 -10.8125 8.234375 -10.375 9.140625 -9.5 L 9.140625 -10.515625 L 12.765625 -10.515625 L 12.765625 0 L 9.171875 0 L 9.171875 -1.1875 L 9.140625 -1.1875 C 8.234375 -0.1875 7.082031 0.3125 5.6875 0.3125 C 4.175781 0.3125 2.925781 -0.222656 1.9375 -1.296875 Z M 5.03125 -7.015625 C 4.5625 -6.554688 4.328125 -5.960938 4.328125 -5.234375 C 4.328125 -4.515625 4.550781 -3.925781 5 -3.46875 C 5.445312 -3.007812 6.039062 -2.78125 6.78125 -2.78125 C 7.488281 -2.78125 8.070312 -3.007812 8.53125 -3.46875 C 8.988281 -3.9375 9.21875 -4.53125 9.21875 -5.25 C 9.21875 -5.96875 8.976562 -6.554688 8.5 -7.015625 C 8.03125 -7.484375 7.457031 -7.71875 6.78125 -7.71875 C 6.082031 -7.71875 5.5 -7.484375 5.03125 -7.015625 Z M 5.03125 -7.015625 "/></g></g></g><g fill="#000000" fill-opacity="1"><g transform="translate(49.158163, 26.135225)"><g><path d="M 2.65625 -2.46875 L 1.671875 -2.46875 L 1.671875 0 L 1.09375 0 L 1.09375 -2.46875 L 0.09375 -2.46875 L 0.09375 -2.921875 L 2.65625 -2.921875 Z M 2.65625 -2.46875 "/></g></g></g><g fill="#000000" fill-opacity="1"><g transform="translate(53.198008, 26.135225)"><g><path d="M 1.953125 -0.875 L 0.984375 -0.875 L 0.6875 0 L 0.0625 0 L 1.125 -2.921875 L 1.84375 -2.921875 L 2.890625 0 L 2.25 0 Z M 1.46875 -2.421875 L 1.125 -1.34375 L 1.8125 -1.34375 Z M 1.46875 -2.421875 "/></g></g></g><g fill="#000000" fill-opacity="1"><g transform="translate(57.461732, 26.135225)"><g><path d="M 2.484375 -0.484375 L 2.484375 0 L 0.375 0 L 0.375 -2.921875 L 0.96875 -2.921875 L 0.96875 -0.484375 Z M 2.484375 -0.484375 "/></g></g></g><g fill="#000000" fill-opacity="1"><g transform="translate(61.421318, 26.135225)"><g><path d="M 2.484375 -0.46875 L 2.484375 0 L 0.375 0 L 0.375 -2.921875 L 2.4375 -2.921875 L 2.4375 -2.46875 L 0.96875 -2.46875 L 0.96875 -1.6875 L 2.34375 -1.6875 L 2.34375 -1.234375 L 0.96875 -1.234375 L 0.96875 -0.46875 Z M 2.484375 -0.46875 "/></g></g></g><g fill="#000000" fill-opacity="1"><g transform="translate(65.431594, 26.135225)"><g><path d="M 2.9375 0 L 2.140625 0 L 0.9375 -2.21875 C 0.957031 -1.957031 0.96875 -1.660156 0.96875 -1.328125 L 0.96875 0 L 0.375 0 L 0.375 -2.921875 L 1.15625 -2.921875 L 2.375 -0.65625 C 2.363281 -0.914062 2.359375 -1.222656 2.359375 -1.578125 L 2.359375 -2.921875 L 2.9375 -2.921875 Z M 2.9375 0 "/></g></g></g><g fill="#000000" fill-opacity="1"><g transform="translate(70.050144, 26.135225)"><g><path d="M 2.65625 -2.46875 L 1.671875 -2.46875 L 1.671875 0 L 1.09375 0 L 1.09375 -2.46875 L 0.09375 -2.46875 L 0.09375 -2.921875 L 2.65625 -2.921875 Z M 2.65625 -2.46875 "/></g></g></g></svg>